<?xml version="1.0" standalone="no"?>
<!DOCTYPE svg PUBLIC "-//W3C//DTD SVG 20010904//EN"
 "http://www.w3.org/TR/2001/REC-SVG-20010904/DTD/svg10.dtd">
<svg version="1.0" xmlns="http://www.w3.org/2000/svg"
 width="550.000000pt" height="289.000000pt" viewBox="0 0 550.000000 289.000000"
 preserveAspectRatio="xMidYMid meet">
<metadata>
Created by potrace 1.15, written by Peter Selinger 2001-2017
</metadata>
<g transform="translate(0.000000,289.000000) scale(0.100000,-0.100000)"
fill="#000000" stroke="none">
<path d="M910 1445 l0 -1445 520 0 c346 0 537 4 572 11 165 35 292 162 327
327 15 74 16 2109 0 2184 -30 143 -124 263 -258 327 l-76 36 -542 3 -543 3 0
-1446z m885 1026 c50 -22 91 -69 105 -119 6 -24 10 -345 10 -925 0 -961 2
-927 -53 -985 -49 -53 -67 -57 -294 -60 l-213 -4 0 1056 0 1056 203 0 c174 0
208 -3 242 -19z"/>
<path d="M2773 2875 c-116 -25 -191 -73 -229 -147 -43 -84 -44 -97 -44 -1445
l0 -1283 205 0 205 0 0 620 0 620 260 0 260 0 0 -303 c0 -167 3 -446 7 -620
l6 -317 209 0 209 0 -3 1298 -3 1297 -22 65 c-41 119 -122 186 -262 216 -91
19 -708 19 -798 -1z m579 -398 c18 -8 42 -24 53 -37 19 -21 20 -38 23 -426 l3
-404 -261 0 -260 0 0 390 c0 420 3 445 51 471 57 30 324 34 391 6z"/>
<path d="M4020 1445 l0 -1445 225 0 225 0 0 1256 0 1256 228 -4 c245 -5 272
-10 292 -57 7 -18 10 -147 8 -409 l-3 -381 -23 -23 c-22 -22 -30 -23 -207 -26
l-185 -3 0 -184 0 -183 232 -616 231 -616 229 0 c145 0 228 4 228 10 0 7 -407
1108 -445 1203 -7 15 2 17 91 17 117 0 181 24 231 85 57 68 57 70 50 742 l-6
615 -26 53 c-28 58 -63 93 -129 128 -41 22 -44 22 -643 25 l-603 3 0 -1446z"/>
<path d="M140 1905 l0 -215 -70 0 -70 0 0 -165 0 -165 69 0 70 0 3 -587 c4
-646 4 -640 66 -707 52 -55 75 -60 335 -64 l237 -4 0 165 0 164 -101 5 c-158
8 -143 -47 -147 543 l-3 495 116 0 115 0 0 160 0 160 -115 0 -115 0 0 215 0
215 -195 0 -195 0 0 -215z"/>
</g>
</svg>
